# xmcd CD database file
#
# Track frame offsets:
#	183
#	18548
#	37770
#	57443
#	77485
#	97990
#	117878
#	136935
#	155323
#	171975
#
# Disc length: 2544 seconds
#
# Revision: 4
# Processed by: cddbd v1.4PL0 Copyright (c) Steve Scherf et al.
# Submitted via: CDex 1.40Release
#
DISCID=7109ee0a
DTITLE=Joe Ely - Love And Danger
DYEAR=1992
DGENRE=Rock
TTITLE0=Sleepless In Love
TTITLE1=Pins And Needles
TTITLE2=Love Is In The Beating Of Hearts
TTITLE3=Slow You Down
TTITLE4=The Road Goes On Forever
TTITLE5=Settle For Love
TTITLE6=Highways And Heartaches
TTITLE7=Whenever Kindness Fails
TTITLE8=She Collected
TTITLE9=Every Night About This Time
EXTD=YEAR: 1992 ID3G: 17
EXTT0=
EXTT1=
EXTT2=
EXTT3=
EXTT4=
EXTT5=
EXTT6=
EXTT7=
EXTT8=
EXTT9=
PLAYORDER=
